<svg width="108" height="113" viewBox="0 0 108 113" fill="none" xmlns="http://www.w3.org/2000/svg">
<g clip-path="url(#clip0_248_2)">
<path d="M62.3398 3.3999V78.7999L106.94 109.1L107.96 44.4199L62.3398 3.3999Z" fill="#2D2D2D"/>
<path d="M0.910156 56.27C2.98016 47.33 6.94016 41.62 9.39016 38.65C13.0402 34.22 17.1502 31.22 19.6902 29.37C23.9902 26.23 25.6002 25.84 30.2902 22.74C33.2202 20.81 37.4502 17.76 42.2002 13.28C39.0302 18.86 35.5502 22.36 32.9202 24.54C28.8602 27.9 26.5102 28.39 20.3602 33.15C18.9602 34.23 15.7102 36.77 12.3802 40.16C9.18016 43.45 4.79016 48.66 0.910156 56.27Z" fill="#1B4922"/>
<path d="M4.45154 74.63C4.15154 61.17 8.73154 53.13 11.1515 49.62C15.6015 43.15 22.2015 38.3 25.8315 35.62C31.0715 31.77 33.5315 30.95 38.9115 26.29C41.6215 23.94 44.9015 21.06 48.1015 16.69C50.4715 13.45 53.8615 7.95 55.9215 0C56.3715 5.01 56.1215 12.18 52.5915 19.41C49.7115 25.29 45.6915 29.12 42.7115 31.96C38.2215 36.23 33.4115 39.39 31.5315 40.61C27.4215 43.28 25.1515 44.26 21.3315 47.45C21.3315 47.45 18.3515 49.94 15.7415 52.87C8.92154 60.52 5.67154 70.38 4.45154 74.63Z" fill="#1B4922"/>
<path d="M14.3398 63.1699C17.1498 58.4799 20.1398 55.32 22.2998 53.32C24.8598 50.96 27.1598 49.4299 31.2598 46.6899C34.7898 44.3299 37.8198 42.52 39.9698 41.29C41.3198 40.52 43.1198 39.3599 45.0398 37.6899C46.9298 36.0499 48.0798 34.65 49.7698 32.59C51.4698 30.52 53.1898 28.4099 54.9598 25.3099C56.2698 23.0099 57.1498 20.96 57.7298 19.45C57.4298 23.68 56.3498 26.91 55.4798 28.9799C53.2098 34.38 49.8598 37.7799 47.4798 40.2099C44.9098 42.8299 42.6898 44.4099 42.1998 44.7599C40.5698 45.9099 40.0898 46.05 36.7098 48.06C32.8798 50.34 32.7698 50.6 29.5498 52.52C25.1898 55.11 24.7998 54.9899 22.3898 56.5099C20.2698 57.8399 17.3998 59.9299 14.3398 63.1699Z" fill="#1B4922"/>
<path d="M0 94.17C2.3 85.29 6.4 79.68 8.93 76.77C12.69 72.43 16.87 69.54 19.46 67.75C23.84 64.72 25.45 64.37 30.23 61.39C33.21 59.53 37.51 56.59 42.38 52.24C39.07 57.74 35.5 61.15 32.82 63.26C28.67 66.52 26.31 66.94 20.05 71.55C18.63 72.59 15.31 75.05 11.9 78.36C8.59 81.56 4.07 86.66 0 94.17Z" fill="#1B4922"/>
<path d="M3.07031 112.61C3.11031 99.15 7.89031 91.22 10.4003 87.77C15.0203 81.41 21.7303 76.7301 25.4303 74.1501C30.7603 70.4301 33.2403 69.6801 38.7403 65.1501C41.5103 62.8701 44.8603 60.0701 48.1703 55.7901C50.6203 52.6101 54.1503 47.19 56.4103 39.3C56.7403 44.32 56.3103 51.48 52.5903 58.62C49.5703 64.43 45.4403 68.16 42.3903 70.92C37.8003 75.07 32.9103 78.11 30.9903 79.28C26.8103 81.85 24.5203 82.7601 20.6203 85.8601C20.6203 85.8601 17.5703 88.28 14.9003 91.14C7.89031 98.62 4.40031 108.4 3.07031 112.61Z" fill="#1B4922"/>
<path d="M13.2383 101.41C16.1683 96.7901 19.2283 93.7001 21.4383 91.7701C24.0583 89.4801 26.3983 88.0001 30.5583 85.3701C34.1483 83.1001 37.2283 81.3701 39.3983 80.2001C40.7683 79.4701 42.5983 78.3501 44.5583 76.7301C46.4883 75.1301 47.6783 73.7701 49.4183 71.7601C51.1683 69.7301 52.9483 67.6701 54.7883 64.6201C56.1583 62.3501 57.0883 60.3201 57.7083 58.8301C57.2983 63.0501 56.1483 66.2501 55.2183 68.3001C52.8083 73.6401 49.3783 76.9601 46.9383 79.3201C44.2983 81.8701 42.0483 83.4001 41.5483 83.7301C39.8883 84.8401 39.4083 84.9701 35.9783 86.8901C32.0983 89.0701 31.9683 89.3301 28.7083 91.1601C24.2883 93.6401 23.8983 93.5101 21.4483 94.9701C19.3183 96.2301 16.3883 98.2401 13.2383 101.41Z" fill="#1B4922"/>
<path d="M66.8116 93.4399H48.6016V111.65H66.8116V93.4399Z" fill="#2D2D2D"/>
</g>
<defs>
<clipPath id="clip0_248_2">
<rect width="107.96" height="112.61" fill="white"/>
</clipPath>
</defs>
</svg>
